<svg version="1.1" id="Layer_1" xmlns="http://www.w3.org/2000/svg" xmlns:xlink="http://www.w3.org/1999/xlink" x="0px" y="0px"
	 width="100%" viewBox="0 0 1200 489" xml:space="preserve">

<path fill="#1F4076" opacity="1.000000" stroke="none" 
	d="
M1201.000000,245.531342 
	C1083.365845,246.020935 965.731628,246.070648 848.097473,246.051071 
	C785.779907,246.040710 723.462280,245.909897 660.287292,245.633835 
	C639.949646,245.332962 620.469360,245.231735 600.989136,245.130493 
	C598.325806,245.086868 595.662537,245.005112 592.999207,245.005035 
	C398.803955,244.999054 204.608719,245.000259 10.413480,244.992996 
	C7.584314,244.992905 4.755152,244.894165 1.462994,244.920746 
	C1.000000,218.312439 1.000000,191.624878 1.278967,164.031021 
	C3.157778,163.437988 4.757444,164.023712 6.357492,164.024765 
	C49.499023,164.053146 92.640625,163.983582 135.782166,164.009491 
	C192.586075,164.043594 249.389954,164.196945 306.193848,164.201691 
	C357.829895,164.205994 409.465912,164.043701 461.101990,164.021790 
	C512.570923,163.999939 564.039795,164.073471 615.508728,164.082932 
	C677.311157,164.094299 739.113647,164.062531 800.916077,164.087387 
	C839.391724,164.102859 877.867371,164.226639 916.343018,164.232986 
	C963.150940,164.240707 1009.958801,164.183441 1056.766724,164.140137 
	C1086.912720,164.112259 1117.058594,164.052170 1147.204590,164.019455 
	C1165.136353,164.000000 1183.068237,164.005646 1201.000000,164.000000 
	C1201.000000,191.020889 1201.000000,218.041794 1201.000000,245.531342 
z"/>
<path fill="#7782E9" opacity="1.000000" stroke="none" 
	d="
M1201.000000,163.531342 
	C1183.068237,164.005646 1165.136353,164.000000 1147.204590,164.019455 
	C1117.058594,164.052170 1086.912720,164.112259 1056.766724,164.140137 
	C1009.958801,164.183441 963.150940,164.240707 916.343018,164.232986 
	C877.867371,164.226639 839.391724,164.102859 800.916077,164.087387 
	C739.113647,164.062531 677.311157,164.094299 615.508728,164.082932 
	C564.039795,164.073471 512.570923,163.999939 461.101990,164.021790 
	C409.465912,164.043701 357.829895,164.205994 306.193848,164.201691 
	C249.389954,164.196945 192.586075,164.043594 135.782166,164.009491 
	C92.640625,163.983582 49.499023,164.053146 6.357492,164.024765 
	C4.757444,164.023712 3.157778,163.437988 1.278967,163.562363 
	C1.000000,146.645767 1.000000,129.291550 1.000000,111.468658 
	C11.587532,110.035187 22.174175,109.060478 32.763020,108.110291 
	C37.185333,107.713448 41.610859,107.349930 46.037468,107.003845 
	C58.985218,105.991577 71.939178,105.054962 84.881500,103.977989 
	C100.102722,102.711372 115.397316,101.935349 130.512314,99.866760 
	C159.797470,95.858902 189.191269,95.705582 218.627991,96.016304 
	C242.552185,96.268837 266.495270,96.193672 290.388519,97.224663 
	C300.544189,97.662872 310.593903,100.554527 320.691986,102.329842 
	C333.351624,104.555511 346.113678,106.327354 358.636963,109.156418 
	C367.679047,111.199066 376.667084,111.397774 385.744568,110.958305 
	C403.532990,110.097122 421.345917,109.410904 439.080658,107.869148 
	C455.508453,106.441017 471.886993,104.264717 488.212952,101.904060 
	C501.248596,100.019180 514.138672,97.142654 527.159058,95.131836 
	C534.606140,93.981743 542.195007,93.779343 549.701477,92.977249 
	C561.092712,91.760063 572.463989,90.358055 583.851135,89.101433 
	C590.695557,88.346115 597.545654,87.615356 604.407898,87.054092 
	C617.679504,85.968636 630.980408,84.000046 644.234619,84.247566 
	C662.132446,84.581810 679.996582,86.676399 697.877625,87.981232 
	C703.304260,88.377220 708.736938,88.701202 714.170776,88.983391 
	C721.431396,89.360458 728.705017,89.530228 735.956787,90.026550 
	C754.174988,91.273415 772.406128,92.409981 790.589661,94.058769 
	C804.751709,95.342918 818.875122,97.145706 832.969788,99.056358 
	C848.474182,101.158089 863.911072,103.753906 879.408997,105.907150 
	C884.612915,106.630180 889.912354,106.923607 895.170593,106.952965 
	C915.831665,107.068298 936.509338,107.489769 957.150208,106.834656 
	C971.883667,106.367043 986.567627,104.354149 1001.275146,103.047852 
	C1005.530945,102.669861 1009.787537,102.126816 1014.051270,102.042610 
	C1035.138306,101.626152 1056.227173,101.171959 1077.316895,101.072701 
	C1088.404907,101.020500 1099.519165,101.337814 1110.579102,102.102974 
	C1119.689087,102.733238 1128.737793,104.259834 1137.811523,105.405876 
	C1147.214355,106.593475 1156.594360,108.001915 1166.020996,108.948502 
	C1177.445801,110.095734 1188.908936,110.860130 1200.677734,111.395096 
	C1201.000000,128.354233 1201.000000,145.708450 1201.000000,163.531342 
z"/>
<path fill="#007F7F" opacity="1.000000" stroke="none" 
	d="
M601.274658,245.440613 
	C620.469360,245.231735 639.949646,245.332962 659.835571,245.592133 
	C640.680969,245.750305 621.120544,245.750519 601.274658,245.440613 
z"/>
</svg>