<?xml version="1.0"?>
<svg width="1200" height="489" xmlns="http://www.w3.org/2000/svg" xmlns:svg="http://www.w3.org/2000/svg" version="1.1" xml:space="preserve">
 <g class="layer">
  <title>Layer 1</title>
  <path d="m1202,496.92c-117.92,2 -235.86,2.2 -353.78,2.12c-62.48,-0.04 -124.95,-0.57 -188.28,-1.71c-20.39,-1.22 -39.92,-1.63 -59.45,-2.04c-2.67,-0.16 -5.34,-0.49 -8.01,-0.49c-194.69,-0.04 -389.36,-0.04 -584.05,-0.08c-2.84,0 -5.66,-0.41 -8.97,-0.29c-0.46,-108.42 -0.46,-217.17 -0.18,-329.59c1.88,-2.4 3.49,-0.04 5.09,-0.04c43.25,0.12 86.5,-0.16 129.74,-0.04c56.95,0.12 113.89,0.77 170.84,0.77c51.77,0.04 103.54,-0.65 155.3,-0.73c51.6,-0.08 103.2,0.2 154.8,0.24c61.95,0.04 123.91,-0.08 185.87,0.04c38.57,0.04 77.14,0.57 115.71,0.57c46.93,0.04 93.85,-0.2 140.78,-0.37c30.22,-0.12 60.44,-0.37 90.66,-0.49c17.98,-0.08 35.96,-0.04 53.93,-0.08c0,110.09 0,220.19 0,332.2z" fill="#1F4076" id="svg_1"/>
  <path d="m1201,166.83c-17.94,0.28 -35.89,0.27 -53.84,0.28c-30.17,0.02 -60.34,0.05 -90.51,0.07c-46.85,0.02 -93.7,0.06 -140.55,0.05c-38.5,0 -77.01,-0.07 -115.52,-0.08c-61.86,-0.02 -123.71,0 -185.56,-0.01c-51.51,-0.01 -103.03,-0.05 -154.54,-0.03c-51.67,0.01 -103.36,0.11 -155.04,0.1c-56.85,0 -113.69,-0.09 -170.55,-0.11c-43.18,-0.02 -86.35,0.02 -129.53,0.01c-1.6,0 -3.2,-0.33 -5.08,-0.26c-0.28,-9.72 -0.28,-19.71 -0.28,-29.95c10.6,-0.82 21.19,-1.39 31.79,-1.93c4.43,-0.23 8.86,-0.44 13.29,-0.64c12.96,-0.58 25.92,-1.12 38.87,-1.74c15.23,-0.73 30.55,-1.17 45.67,-2.36c29.31,-2.31 58.73,-2.39 88.19,-2.21c23.94,0.14 47.91,0.1 71.82,0.69c10.16,0.25 20.22,1.91 30.33,2.94c12.67,1.28 25.44,2.3 37.98,3.93c9.05,1.17 18.05,1.29 27.12,1.04c17.8,-0.49 35.64,-0.89 53.38,-1.78c16.44,-0.82 32.84,-2.08 49.17,-3.43c13.05,-1.08 25.95,-2.74 38.98,-3.89c7.46,-0.66 15.05,-0.78 22.56,-1.24c11.4,-0.7 22.78,-1.51 34.18,-2.23c6.86,-0.43 13.71,-0.85 20.58,-1.18c13.28,-0.62 26.59,-1.75 39.85,-1.61c17.91,0.19 35.8,1.4 53.69,2.14c5.42,0.23 10.87,0.41 16.3,0.58c7.27,0.22 14.55,0.32 21.81,0.6c18.23,0.71 36.48,1.37 54.68,2.32c14.17,0.74 28.31,1.78 42.42,2.88c15.51,1.21 30.97,2.7 46.48,3.94c5.2,0.41 10.51,0.58 15.77,0.6c20.68,0.07 41.37,0.31 62.03,-0.07c14.74,-0.26 29.44,-1.43 44.17,-2.17c4.25,-0.22 8.52,-0.53 12.78,-0.58c21.11,-0.24 42.22,-0.5 63.32,-0.56c11.09,-0.03 22.22,0.16 33.29,0.59c9.12,0.36 18.18,1.24 27.25,1.9c9.41,0.68 18.8,1.49 28.23,2.04c11.44,0.66 22.91,1.1 34.69,1.41c0.32,9.75 0.32,19.73 0.32,29.98z" fill="#7782E9" id="svg_2" transform="matrix(1, 0, 0, 1, 0, 0)"/>
  <path d="m601.27,245.44c19.2,-0.21 38.68,-0.11 58.57,0.15c-19.16,0.16 -38.72,0.16 -58.57,-0.15z" fill="#007F7F" id="svg_3"/>
  <text fill="#ffffff" font-family="Courier" font-size="10" font-style="italic" id="svg_4" stroke="#000000" stroke-width="0" text-anchor="middle" text-decoration="underline" x="599.4" xml:space="preserve" y="148.4">Made by: Sean Paulson</text>
 </g>

</svg>