<svg xmlns="http://www.w3.org/2000/svg" xmlns:xlink="http://www.w3.org/1999/xlink" version="1.1" width="1000" height="1000" viewBox="0 0 1000 1000" xml:space="preserve">
<desc>Created with Fabric.js 3.5.0</desc>
<defs>
</defs>
<rect x="0" y="0" width="100%" height="100%" fill="rgba(255,255,255,0)"/>
<g transform="matrix(1 0 0 1 500 500)" style="" id="709680">
		
<path xml:space="preserve" font-family="Abril Fatface" font-size="71" font-style="normal" font-weight="normal" style="stroke: none; stroke-width: 1; stroke-dasharray: none; stroke-linecap: butt; stroke-dashoffset: 0; stroke-linejoin: miter; stroke-miterlimit: 4; is-custom-font: none; font-file-url: none; fill: rgb(185,104,50); fill-rule: nonzero; opacity: 1; white-space: pre;" d="M-203.81-25.83L-203.81-27.40L-166.89-27.40L-166.18-13.34L-167.45-13.34Q-170.44-20.51-173.70-23.17Q-176.97-25.83-183.29-25.83L-183.29-25.83L-185.77-25.83L-185.77-3.90L-183.36-3.90Q-180.02-3.90-177.75-6.42Q-175.48-8.94-174.55-13.20L-174.55-13.20L-173.49-13.20L-173.49 7.82L-174.70 7.82Q-175.97 2.49-178.14 0.22Q-180.30-2.05-184.07-2.05L-184.07-2.05L-185.77-2.05L-185.77 20.74L-183.07 20.74Q-176.54 20.74-171.96 16.84Q-167.38 12.93-165.68 6.83L-165.68 6.83L-164.26 6.83L-164.83 22.30L-203.81 22.30L-203.81 20.74L-199.62 20.74L-199.62-25.83L-203.81-25.83ZM-139.55 2.57L-157.44 2.57L-157.44 0.44L-139.55 0.44L-139.55 2.57ZM-115.41-10.92L-115.41-10.92Q-118.53-10.92-119.88-7.52Q-121.23-4.11-121.23 3.77L-121.23 3.77L-121.23 7.46Q-121.23 14.49-119.67 17.55Q-118.11 20.60-113.92 20.60Q-109.73 20.60-107.25 17.76Q-104.76 14.92-104.05 11.30L-104.05 11.30L-102.77 11.44Q-104.12 17.55-107.74 20.24L-107.74 20.24Q-111.43 23.01-117.90 23.01L-117.90 23.01Q-126.13 23.01-130.53 18.58Q-134.94 14.14-134.94 5.58Q-134.94-2.97-129.93-7.59Q-124.92-12.20-115.98-12.20L-115.98-12.20Q-109.66-12.20-106.32-9.75Q-102.99-7.30-102.99-3.61Q-102.99 0.08-104.58 1.78Q-106.18 3.49-108.98 3.49Q-111.79 3.49-113.49 2.00Q-115.20 0.51-115.20-2.40L-115.20-2.40Q-115.20-3.68-114.84-4.96L-114.84-4.96L-112.50-4.96Q-112.00-6.38-112.00-7.52L-112.00-7.52Q-112.00-10.92-115.41-10.92ZM-78.06 8.32L-78.06 8.32L-78.06 2.28Q-78.06-4.61-78.81-7.76Q-79.56-10.92-82.25-10.92L-82.25-10.92Q-83.82-10.92-84.77-10.04Q-85.73-9.15-86.16-7.09L-86.16-7.09Q-86.80-3.90-86.80 2.64L-86.80 2.64L-86.80 8.17Q-86.80 15.91-86.34 17.48Q-85.87 19.04-85.38 20.03L-85.38 20.03Q-84.60 21.74-82.32 21.74L-82.32 21.74Q-79.56 21.74-78.70 18.54L-78.70 18.54Q-78.06 16.27-78.06 8.32ZM-82.47 23.01Q-91.34 23.01-95.89 18.47Q-100.43 13.93-100.43 5.44Q-100.43-3.04-95.57-7.62Q-90.70-12.20-81.90-12.20Q-73.09-12.20-68.76-7.98Q-64.43-3.75-64.43 4.91L-64.43 4.91Q-64.43 23.01-82.47 23.01L-82.47 23.01ZM-62.44-10.21L-62.44-11.49L-45.33-11.49L-45.33-4.96Q-42.99-12.20-35.00-12.20Q-27.02-12.20-25.31-4.53L-25.31-4.53Q-22.83-12.20-14.87-12.20L-14.87-12.20Q-4.44-12.20-4.44-0.35L-4.44-0.35L-4.44 21.03L-0.46 21.03L-0.46 22.30L-20.13 22.30L-20.13 21.03L-17.64 21.03L-17.64-2.05Q-17.64-7.45-18.57-8.37L-18.57-8.37Q-18.99-8.79-19.70-8.79L-19.70-8.79Q-21.76-8.79-23.32-6.03Q-24.89-3.26-24.89 1.00L-24.89 1.00L-24.89 21.03L-22.33 21.03L-22.33 22.30L-40.58 22.30L-40.58 21.03L-38.09 21.03L-38.09-2.05Q-38.09-7.45-39.01-8.37L-39.01-8.37Q-39.44-8.79-40.15-8.79L-40.15-8.79Q-42.14-8.79-43.74-5.78Q-45.33-2.76-45.33 1.43L-45.33 1.43L-45.33 21.03L-42.78 21.03L-42.78 22.30L-62.44 22.30L-62.44 21.03L-58.54 21.03L-58.54-10.21L-62.44-10.21ZM0.60-10.21L0.60-11.49L17.71-11.49L17.71-4.96Q20.06-12.20 28.05-12.20Q36.03-12.20 37.74-4.53L37.74-4.53Q40.22-12.20 48.17-12.20L48.17-12.20Q58.61-12.20 58.61-0.35L58.61-0.35L58.61 21.03L62.59 21.03L62.59 22.30L42.92 22.30L42.92 21.03L45.40 21.03L45.40-2.05Q45.40-7.45 44.48-8.37L44.48-8.37Q44.06-8.79 43.35-8.79L43.35-8.79Q41.29-8.79 39.72-6.03Q38.16-3.26 38.16 1.00L38.16 1.00L38.16 21.03L40.72 21.03L40.72 22.30L22.47 22.30L22.47 21.03L24.96 21.03L24.96-2.05Q24.96-7.45 24.03-8.37L24.03-8.37Q23.61-8.79 22.90-8.79L22.90-8.79Q20.91-8.79 19.31-5.78Q17.71-2.76 17.71 1.43L17.71 1.43L17.71 21.03L20.27 21.03L20.27 22.30L0.60 22.30L0.60 21.03L4.51 21.03L4.51-10.21L0.60-10.21ZM82.32 23.01Q73.17 23.01 68.59 18.29Q64.01 13.57 64.01 5.16Q64.01-3.26 69.15-7.73Q74.30-12.20 82.25-12.20L82.25-12.20Q98.37-12.20 97.73 3.99L97.73 3.99L77.71 3.99L77.71 6.75Q77.71 13.71 79.48 17.26Q81.26 20.81 85.66 20.81L85.66 20.81Q93.90 20.81 96.45 12.01L96.45 12.01L97.73 12.22Q96.38 17.33 92.87 20.17Q89.35 23.01 82.32 23.01L82.32 23.01ZM77.78-0.91L77.78 2.57L85.09 2.57L85.09-0.91Q85.09-6.66 84.42-8.76Q83.74-10.85 81.72-10.85Q79.70-10.85 78.74-8.62Q77.78-6.38 77.78-0.91L77.78-0.91ZM124.00-9.50L124.00-9.50Q121.37-9.50 119.39-6.10Q117.40-2.69 117.40 2.00L117.40 2.00L117.40 21.03L122.44 21.03L122.44 22.30L100.29 22.30L100.29 21.03L104.19 21.03L104.19-10.21L100.29-10.21L100.29-11.49L117.40-11.49L117.40-4.68Q118.32-8.30 120.95-10.25Q123.58-12.20 126.91-12.20Q130.25-12.20 132.34-10.32Q134.44-8.44 134.44-5.00Q134.44-1.55 132.88 0.29Q131.31 2.14 128.08 2.14Q124.85 2.14 123.33 0.01Q121.80-2.12 122.94-5.88L122.94-5.88L125.49-5.88Q127.27-9.50 124.00-9.50ZM154.96-10.92L154.96-10.92Q151.83-10.92 150.48-7.52Q149.14-4.11 149.14 3.77L149.14 3.77L149.14 7.46Q149.14 14.49 150.70 17.55Q152.26 20.60 156.45 20.60Q160.64 20.60 163.12 17.76Q165.61 14.92 166.32 11.30L166.32 11.30L167.60 11.44Q166.25 17.55 162.63 20.24L162.63 20.24Q158.93 23.01 152.47 23.01L152.47 23.01Q144.24 23.01 139.83 18.58Q135.43 14.14 135.43 5.58Q135.43-2.97 140.44-7.59Q145.44-12.20 154.39-12.20L154.39-12.20Q160.71-12.20 164.05-9.75Q167.38-7.30 167.38-3.61Q167.38 0.08 165.79 1.78Q164.19 3.49 161.38 3.49Q158.58 3.49 156.87 2.00Q155.17 0.51 155.17-2.40L155.17-2.40Q155.17-3.68 155.53-4.96L155.53-4.96L157.87-4.96Q158.37-6.38 158.37-7.52L158.37-7.52Q158.37-10.92 154.96-10.92ZM188.04 23.01Q178.88 23.01 174.31 18.29Q169.73 13.57 169.73 5.16Q169.73-3.26 174.87-7.73Q180.02-12.20 187.97-12.20L187.97-12.20Q204.09-12.20 203.45 3.99L203.45 3.99L183.43 3.99L183.43 6.75Q183.43 13.71 185.20 17.26Q186.98 20.81 191.38 20.81L191.38 20.81Q199.62 20.81 202.17 12.01L202.17 12.01L203.45 12.22Q202.10 17.33 198.59 20.17Q195.07 23.01 188.04 23.01L188.04 23.01ZM183.50-0.91L183.50 2.57L190.81 2.57L190.81-0.91Q190.81-6.66 190.14-8.76Q189.46-10.85 187.44-10.85Q185.42-10.85 184.46-8.62Q183.50-6.38 183.50-0.91L183.50-0.91Z"/></g>
</svg>